<?xml version="1.0" encoding="UTF-8" standalone="no"?>
<svg width="82px" height="117px" viewBox="0 0 82 117" version="1.1" xmlns="http://www.w3.org/2000/svg" xmlns:xlink="http://www.w3.org/1999/xlink" xmlns:sketch="http://www.bohemiancoding.com/sketch/ns">
    <!-- Generator: Sketch 3.3.2 (12043) - http://www.bohemiancoding.com/sketch -->
    <title>Imported Layers 2</title>
    <desc>Created with Sketch.</desc>
    <defs></defs>
    <g id="Page-1" stroke="none" stroke-width="1" fill="none" fill-rule="evenodd" sketch:type="MSPage">
        <g id="Homepage" sketch:type="MSArtboardGroup" transform="translate(-679.000000, -4418.000000)" fill="#009E8E">
            <g id="Imported-Layers-2" sketch:type="MSLayerGroup" transform="translate(679.000000, 4417.000000)">
                <path d="M29.5607476,21.2630148 C29.8737022,20.6301398 28.8421113,20.4318898 27.8221113,20.2527023 C26.7287022,20.0658898 25.8902931,20.1040148 24.8084749,20.2755773 C23.8155204,20.4318898 22.8148385,20.6987648 22.7375658,20.9427648 C22.4207476,21.9416398 28.5832476,23.2836398 29.5607476,21.2630148 L29.5607476,21.2630148 Z M16.6600658,31.8960773 C20.504384,34.2750773 24.3912022,35.7772023 28.3630204,35.9487648 C32.3387022,36.1203273 36.4341567,34.9575148 40.6841567,31.9799523 L40.3132476,31.6215773 C39.9887022,31.3013273 39.9809749,30.8018898 40.2823385,30.4968898 C40.5914295,30.1918898 41.0975658,30.1995148 41.4182476,30.5121398 L42.3416567,31.4157023 C42.4189295,31.4652648 42.4962022,31.5262648 42.5502931,31.6063273 C42.5734749,31.6215773 42.5773385,31.6368273 42.5927931,31.6597023 L43.5355204,32.5823273 C43.8600658,32.9025773 43.8716567,33.4020148 43.5702931,33.7070148 C43.2689295,34.0120148 42.7589295,34.0043898 42.4382476,33.6917648 L41.8625658,33.1275148 C37.2377931,36.4329523 32.7521113,37.7215773 28.3630204,37.5347648 C24.0241567,37.3479523 19.8166567,35.7085773 15.6941567,33.1503898 L15.4971113,33.4172648 L15.3889295,33.5583273 C15.1339295,33.9014523 14.6316567,33.9662648 14.2762022,33.6993898 C13.9130204,33.4325148 13.831884,32.9330773 14.086884,32.5823273 L14.1950658,32.4412648 C14.6277931,31.8693898 15.0489295,31.2937023 15.5087022,30.7370773 C15.7830204,30.4092023 16.2852931,30.3710773 16.6330204,30.6532023 C16.9807476,30.9391398 17.0387022,31.4423898 16.7682476,31.7702648 C16.7257476,31.8160148 16.6948385,31.8617648 16.6600658,31.8960773 L16.6600658,31.8960773 Z M14.1757476,12.1816398 L14.1757476,12.1816398 C13.6889295,12.3303273 13.2600658,12.3646398 12.8891567,12.1358898 C12.4216567,11.8461398 12.259384,11.3390773 12.5221113,10.4736398 C12.9277931,9.13545231 13.6580204,8.29288981 14.6277931,7.70576481 L15.4005204,4.86926481 C15.7250658,3.68357731 16.0496113,3.47388981 17.0541567,2.84863981 L17.0580204,2.84863981 C17.784384,2.38732731 18.5687022,2.01370231 19.4071113,1.73157731 C20.2455204,1.44182731 21.1302931,1.26263981 22.0691567,1.18257731 C23.6107476,1.04913981 24.1284749,1.32363981 25.3841567,2.00988981 L25.4498385,2.03657731 C29.4950658,4.22113981 32.5280204,2.47120231 37.1489295,2.70757731 C40.1355204,2.85626481 43.1800658,3.31757731 46.2400658,3.84751481 C46.4371113,3.49676481 46.6496113,3.17651481 46.8930204,2.88676481 C47.2523385,2.43307731 47.6502931,2.04420231 48.1062022,1.73920231 C49.5666567,0.736514806 50.6021113,0.950014806 52.0316567,1.24738981 C52.2325658,1.29313981 52.3909749,1.32363981 52.4141567,1.33126481 C53.441884,1.53713981 54.4812022,1.80782731 55.5282476,2.20813981 C56.5946113,2.62751481 57.6648385,3.18413981 58.754384,3.98095231 C59.6121113,4.61382731 60.1375658,5.11326481 60.5316567,5.73088981 C60.9180204,6.33326481 61.1421113,7.00426481 61.4125658,7.97263981 C61.856884,9.56626481 62.1814295,11.0645773 62.2046113,12.3722648 C62.2355204,13.6113273 62.0075658,14.6673898 61.4048385,15.4947023 C61.9727931,17.3170773 62.5291567,19.2614523 63.0662022,21.3621398 C63.6380204,23.6038898 64.2059749,26.0438898 64.7623385,28.7545773 C65.3109749,31.4805148 66.2575658,32.3612023 67.7296113,33.7375148 C68.3284749,34.2941398 69.0007476,34.9270148 69.7927931,35.8000773 C72.4471113,38.7242648 74.5064295,42.0678273 76.0789295,45.7316398 C77.6012022,49.2925148 78.6714295,53.1507648 79.3823385,57.2453898 C79.7687022,57.4893898 80.1550658,57.7715148 80.5221113,58.1832648 C80.981884,58.6903273 81.4030204,59.3727648 81.7352931,60.3335148 C81.7971113,60.4898273 81.7971113,60.6461398 81.746884,60.7986398 L81.7584749,60.7986398 C80.1937022,66.5021398 76.6855204,71.0733273 73.5675658,75.1222023 C72.8373385,76.0753273 72.1302931,77.0017648 71.5082476,77.8557648 C71.4309749,78.9652023 71.2957476,80.0975148 71.1102931,81.2603273 C69.9125658,88.8014523 66.4352931,97.6350148 60.6630204,107.75339 L62.6991567,109.770202 C62.9657476,110.029452 63.2748385,110.292515 63.5877931,110.54414 C64.236884,111.089327 64.8821113,111.619265 65.1873385,112.20639 C65.6355204,113.064202 65.5080204,113.849577 64.2562022,114.482452 C53.6582476,119.86189 50.6562022,118.043327 43.1607476,113.50264 C41.7698385,112.652452 40.1664295,112.271202 39.7298385,110.68139 C39.6989295,110.55939 39.6680204,110.448827 39.629384,110.338265 C35.8507476,113.083265 32.0296113,115.458452 28.1157476,116.636515 C23.8271113,117.90989 19.4496113,117.753577 14.9137022,115.08864 C13.6657476,114.35664 13.2755204,113.620827 13.4030204,112.80114 C13.5227931,112.09964 14.0559749,111.497265 14.7475658,110.822452 C15.6825658,109.896015 16.7837022,109.03439 18.0587022,108.237577 C19.144384,107.551327 20.3575658,106.910827 21.6982476,106.323702 C21.0684749,104.333577 20.2648385,102.427327 19.3337022,100.589702 C18.3021113,98.5042648 17.1237022,96.5027023 15.9105204,94.5049523 C15.8834749,94.4630148 15.8602931,94.4172648 15.8409749,94.3715148 C9.76733855,89.8460773 6.70733855,82.8158273 6.649384,73.2922023 C6.47552036,73.3074523 6.29392945,73.2693273 6.13165673,73.1663898 C5.23915673,72.5907023 4.39302036,71.9425773 3.58165673,71.2067648 C2.77415673,70.4633273 2.00915673,69.6283898 1.27892945,68.6523898 C0.745747637,67.9508898 0.425065818,67.4743273 0.224156727,66.9177023 C0.0232476365,66.3382023 -0.0308432726,65.7548898 0.0155203638,64.8551398 C0.224156727,60.1200148 1.43347491,55.6212648 3.419384,51.3017023 C5.30483855,47.2147023 7.90892945,43.2992648 11.0152931,39.5096398 C10.2387022,38.7700148 9.46983855,37.9808273 8.72029309,37.1382648 C7.62302036,35.9258898 6.93529309,35.0566398 6.53347491,34.0501398 C6.12392945,33.0207648 6.04279309,31.9494523 6.15483855,30.2986398 C6.36347491,27.4735773 6.56052036,25.0183273 7.21733855,22.6774523 C7.86642945,20.3098898 8.97142945,18.1138898 10.9882476,15.9026398 C11.2780204,15.5747648 11.7880204,15.5366398 12.1202931,15.8340148 C12.4525658,16.1275773 12.4796113,16.6232023 12.1821113,16.9548898 C10.3546113,18.9640773 9.34620218,20.9503898 8.75506582,23.0968273 C8.15620218,25.2623273 7.95915673,27.6603898 7.76597491,30.4092023 C7.65779309,31.8083898 7.71961127,32.7005148 8.02870218,33.4668273 C8.34165673,34.2636398 8.944384,35.0108898 9.91802036,36.0974523 C15.0952931,41.8772023 21.0452931,45.2627023 27.9457476,45.7621398 C34.8925658,46.2539523 42.8323385,43.8330148 51.9582476,37.9884523 C52.3175658,37.7444523 52.8198385,37.8550148 53.0632476,38.2133898 C53.3027931,38.5755773 53.1946113,39.0750148 52.8237022,39.3152023 C43.3964295,45.3618273 35.1205204,47.8628273 27.8337022,47.3328898 C21.9996113,46.9173273 16.8184749,44.5802648 12.2014295,40.5885773 C9.19552036,44.2523898 6.68802036,48.0343898 4.87597491,51.9650773 C2.97120218,56.0902023 1.81983855,60.3945148 1.61506582,64.9313898 C1.58802036,65.6138273 1.61120218,66.0332023 1.73483855,66.3877648 C1.87006582,66.7613898 2.13279309,67.1350148 2.569384,67.7145148 C3.23006582,68.5990148 3.93711127,69.3691398 4.67506582,70.0439523 C5.31256582,70.6348898 5.97711127,71.1533898 6.67256582,71.6223273 C6.71892945,70.0439523 6.84642945,68.4083898 7.04733855,66.7003898 C7.09756582,66.2695773 7.49165673,65.9569523 7.93597491,66.0103273 C8.37642945,66.0522648 8.69324764,66.4487648 8.64302036,66.8795773 C8.38029309,69.0679523 8.25665673,71.1457648 8.26052036,73.1053898 C8.44597491,77.6232023 9.74029309,81.2298273 11.749384,84.0434523 C14.0057476,87.1925773 17.1777931,89.3542648 20.7439295,90.7000773 C24.3487022,92.0649523 28.3437022,92.5834523 32.1996113,92.4271398 C37.5430204,92.2288898 42.5927931,90.7382023 45.9425658,88.4011398 C47.4262022,87.3565148 48.0289295,85.9115773 48.1873385,84.3332023 C48.3534749,82.6671398 48.0366567,80.8257023 47.7198385,79.1977648 C47.6348385,78.7707648 47.9207476,78.3628273 48.3612022,78.2713273 C48.7977931,78.1988898 49.2189295,78.4810148 49.2962022,78.9080148 C49.6284749,80.6427023 49.9684749,82.6061398 49.7791567,84.4895148 C49.5821113,86.4872648 48.8055204,88.3401398 46.8698385,89.6973898 C43.2766567,92.1983898 37.9062022,93.7920148 32.2614295,94.0055148 C28.196884,94.1694523 23.9777931,93.6204523 20.1721113,92.1831398 C16.3277931,90.7382023 12.8891567,88.3858898 10.4396113,84.9508273 L10.4048385,84.8936398 C11.9657476,88.5727023 14.3882476,91.5121398 17.6684749,93.7157648 C19.1327931,94.6993898 20.7825658,95.5419523 22.5984749,96.2396398 C24.4259749,96.9487648 26.4312022,97.5053898 28.6064295,97.9171398 L28.6064295,97.9247648 C29.0352931,98.0048273 29.3250658,98.4165773 29.2477931,98.8397648 C29.1705204,99.2705773 28.749384,99.5450773 28.3127931,99.4802648 L28.3050658,99.4726398 L28.3012022,99.4802648 C26.0332476,99.0418273 23.9314295,98.4585148 22.0150658,97.7227023 C20.8830204,97.2918898 19.8166567,96.8000773 18.8082476,96.2548898 C19.5037022,97.4482023 20.1605204,98.6529523 20.7787022,99.8805773 C21.8412022,102.011765 22.7607476,104.207765 23.436884,106.541015 C23.5566567,106.926077 23.3634749,107.349265 22.9732476,107.513202 C21.4471113,108.146077 20.0987022,108.824702 18.9164295,109.564327 C17.7496113,110.30014 16.7373385,111.089327 15.8757476,111.93189 C15.3966567,112.408452 15.0334749,112.793515 14.9909749,113.052765 C14.9677931,113.190015 15.1648385,113.39589 15.7250658,113.723765 C19.8166567,116.129452 23.776884,116.270515 27.6521113,115.111515 C31.469384,113.979202 35.2325658,111.588765 38.9880204,108.839952 C38.5784749,108.111765 38.0298385,107.395015 37.2957476,106.857452 C36.9402931,106.598202 36.866884,106.09114 37.1334749,105.759452 C37.4000658,105.401077 37.8984749,105.324827 38.2539295,105.595515 C40.4677931,107.215827 40.2591567,109.896015 42.2527931,111.089327 C42.8787022,111.470577 43.4505204,111.80989 43.9991567,112.153015 C50.9537022,116.362015 53.7239295,118.043327 63.5182476,113.07564 C63.7075658,112.980327 63.7655204,112.942202 63.7616567,112.934577 C63.599384,112.621952 63.0855204,112.198765 62.5523385,111.760327 C62.2046113,111.470577 61.8530204,111.18464 61.5671113,110.89489 L59.094384,108.458702 C58.8471113,108.214702 58.7852931,107.822015 58.966884,107.505577 C64.8202931,97.3262023 68.3477931,88.4964523 69.5262022,81.0201398 C69.719384,79.8306398 69.846884,78.6754523 69.9125658,77.5507648 L69.9125658,77.5202648 C70.2757476,71.7290773 69.0355204,66.8567023 66.1996113,62.9336398 L66.2150658,62.9336398 C66.1455204,62.8459523 66.1030204,62.7392023 66.0721113,62.6286398 C65.6509749,60.5508273 64.8821113,58.1680148 63.7771113,55.4878273 C63.5452931,54.9273898 63.3134749,54.4012648 63.0855204,53.8865773 C62.8691567,53.4023898 62.6141567,52.8419523 62.324384,52.2205148 C62.1350658,51.8163898 62.3089295,51.3474523 62.7107476,51.1682648 C63.1164295,50.9814523 63.5916567,51.1530148 63.7809749,51.5571398 C64.024384,52.0756398 64.2871113,52.6437023 64.5575658,53.2537023 C64.8202931,53.8408273 65.0559749,54.3860148 65.2646113,54.8930773 C66.3734749,57.5732648 67.1539295,59.9980148 67.6098385,62.1520773 C70.1675658,65.7777648 71.4966567,70.0897023 71.5816567,75.0993273 C71.8134749,74.7867023 72.0491567,74.4817023 72.2887022,74.1690773 C75.2714295,70.2917648 78.6212022,65.9188273 80.1473385,60.6194523 C79.9000658,59.9980148 79.621884,59.5595773 79.3282476,59.2317023 C79.0075658,58.8847648 78.6327931,58.6369523 78.2502931,58.4196398 C78.0532476,58.3090773 77.8987022,58.1070148 77.8639295,57.8706398 C77.1646113,53.7455148 76.1137022,49.8796398 74.6030204,46.3492648 C73.0962022,42.8341398 71.1296113,39.6430773 68.5989295,36.8485148 C67.8725658,36.0517023 67.211884,35.4264523 66.6246113,34.8850773 C64.9362022,33.3028898 63.8389295,32.2849523 63.1859749,29.0672023 C62.6527931,26.4403898 62.0925658,24.0194523 61.5091567,21.7472023 C60.9296113,19.5016398 60.3462022,17.4581398 59.7473385,15.5595148 C59.6623385,15.2926398 59.7125658,14.9723898 59.9405204,14.7550773 C60.4466567,14.2403898 60.6282476,13.4321398 60.6050658,12.4027648 C60.5780204,11.2552023 60.2882476,9.87888981 59.8671113,8.39582731 C59.6391567,7.56851481 59.4498385,7.01951481 59.1755204,6.58107731 C58.8973385,6.13882731 58.4877931,5.76901481 57.7962022,5.25432731 C56.8341567,4.55663981 55.8837022,4.04957731 54.9448385,3.68357731 C53.9827931,3.30995231 53.0400658,3.07357731 52.0973385,2.88676481 C51.8037022,2.82195231 51.7457476,2.80288981 51.699384,2.79907731 C50.6562022,2.58176481 49.9066567,2.42545231 49.0257476,3.03545231 C48.7012022,3.25276481 48.4037022,3.53488981 48.1409749,3.86276481 C47.8782476,4.19826481 47.6348385,4.58332731 47.4184749,5.01032731 C47.2832476,5.34963981 46.9162022,5.56695231 46.5337022,5.50595231 C43.3191567,4.94932731 40.1316567,4.43463981 37.0639295,4.28595231 C30.3837022,3.95045231 29.9702931,6.28370231 24.6848385,3.43195231 L24.6191567,3.39382731 C23.6687022,2.88676481 23.2746113,2.66945231 22.2082476,2.76095231 C21.3930204,2.82576481 20.631884,2.98207731 19.9287022,3.23751481 C19.2139295,3.46626481 18.549384,3.79413981 17.9196113,4.19063981 L17.9157476,4.19063981 C17.3091567,4.56426481 17.1121113,4.69770231 16.9498385,5.27720231 L16.509384,6.88607731 C17.2434749,6.66113981 18.0471113,6.47051481 18.8855204,6.26845231 C19.9789295,6.01301481 21.1573385,5.73088981 22.3937022,5.29245231 C22.8148385,5.15138981 23.2746113,5.36488981 23.4252931,5.77663981 C23.5682476,6.19220231 23.351884,6.64588981 22.9346113,6.79457731 C21.6712022,7.23682731 20.419384,7.54182731 19.2641567,7.80870231 C16.8957476,8.36151481 14.9909749,8.81520231 14.2298385,10.4888898 C16.1887022,9.85601481 18.2325658,9.45570231 20.3691567,9.29938981 C20.7864295,9.26126481 21.2384749,9.24601481 21.7214295,9.23076481 C22.1734749,9.21551481 22.629384,9.21551481 23.0930204,9.22313981 L23.1084749,9.22313981 C23.5450658,9.23076481 23.8966567,9.58913981 23.8927931,10.0275773 C23.8850658,10.4660148 23.5180204,10.8091398 23.0775658,10.8091398 L23.0582476,10.8091398 C21.9416567,10.7862648 20.7091567,10.7443273 19.6080204,10.9502023 C20.2571113,12.7992648 18.5996113,14.0840773 17.2164295,13.7447648 C16.4862022,13.5579523 16.0727931,12.8945773 15.6400658,11.6822023 C15.2382476,11.8156398 14.5814295,12.0367648 14.1757476,12.1816398 L14.1757476,12.1816398 Z M21.3196113,21.4650773 C21.1766567,20.9961398 21.311884,20.3937648 21.8605204,20.1116398 C22.9887022,19.4940148 24.2946113,19.1585148 25.7589295,19.1051398 C27.814384,19.0288898 30.6039295,19.4025148 32.3889295,20.5729523 C32.8641567,20.8855773 33.0882476,21.3087648 32.6980204,22.0102648 C32.2614295,22.7994523 31.6857476,21.9950148 31.3225658,21.5260773 C31.0289295,21.3392648 30.8512022,21.5642023 30.7237022,21.7243273 C29.7655204,23.0205773 29.1164295,23.1273273 27.6366567,23.5962648 L27.4937022,28.6058898 C27.4627931,28.9718898 27.1846113,29.2768898 26.8021113,29.3378898 C26.3655204,29.3874523 25.9559749,29.0824523 25.8941567,28.6516398 L25.5425658,23.5886398 C24.541884,23.3408273 21.6905204,22.6126398 21.3196113,21.4650773 L21.3196113,21.4650773 Z M46.9702931,11.7165148 C47.3837022,11.8804523 47.576884,12.3455773 47.4146113,12.7535148 C47.2484749,13.1614523 46.7809749,13.3482648 46.3714295,13.1843273 C44.9921113,12.6353273 43.6784749,12.2540773 42.2914295,11.8957023 C42.0325658,11.8385148 41.7737022,11.7698898 41.5109749,11.7050773 C41.2366567,12.6353273 41.0125658,13.6227648 40.0002931,13.9430148 C38.566884,14.4005148 36.7007476,13.4664523 37.164384,11.1675148 C36.9209749,11.1675148 36.7200658,11.1598898 36.5423385,11.1598898 C35.7889295,11.1370148 35.0123385,11.1370148 34.1932476,11.1522648 C33.7489295,11.1675148 33.381884,10.8243898 33.3780204,10.3783273 C33.3625658,9.94751481 33.7141567,9.58151481 34.1584749,9.57388981 C36.8282476,9.49763981 39.1696113,9.69207731 41.2714295,10.0733273 C43.3809749,10.4507648 45.2548385,11.0340773 46.9702931,11.7165148 L46.9702931,11.7165148 Z M26.6398385,84.4247023 C26.8484749,84.6839523 26.6437022,85.5341398 26.4891567,85.4960148 C25.6314295,85.2863273 24.0821113,85.3854523 23.7923385,85.4273898 C23.5914295,85.4655148 23.3750658,84.6305773 23.4059749,84.5200148 C23.6030204,83.8642648 26.3152931,84.0205773 26.6398385,84.4247023 L26.6398385,84.4247023 Z" id="Imported-Layers" sketch:type="MSShapeGroup"></path>
            </g>
        </g>
    </g>
</svg>