<svg xmlns="http://www.w3.org/2000/svg" id="icon_2" x="0px" y="0px" width="100%" height="100%" viewBox="0 0 90 90" enable-background="new 0 0 90 90" class="finished">
    <path d="M48.807502,37.5652562 C52.7490551,33.6293554 57.2734163,28.1756529 57.2734163,20.8767273 C57.2735653,9.43899174 47.9545939,0.133735537 36.5,0.133735537 C25.0454061,0.133735537 15.7265837,9.43899174 15.7265837,20.876876 C15.7265837,28.1756529 20.2509449,33.6296529 24.1926469,37.565405 C26.0295653,39.3996198 26.039249,42.7800496 25.9915755,45.366843 L25.6380469,45.366843 C24.8152327,45.366843 24.148251,46.032843 24.148251,46.8544463 L24.148251,65.1302479 C24.148251,65.9517025 24.8152327,66.6178512 25.6380469,66.6178512 L27.6194755,66.6178512 L27.6194755,70.3785124 C27.6194755,71.2001157 28.2866061,71.8661157 29.1092714,71.8661157 L43.8908776,71.8661157 C44.7135429,71.8661157 45.3806735,71.2001157 45.3806735,70.3785124 L45.3806735,66.6178512 L47.362251,66.6178512 C48.1849163,66.6178512 48.8520469,65.9517025 48.8520469,65.1302479 L48.8520469,46.8544463 C48.8520469,46.032843 48.1849163,45.366843 47.362251,45.366843 L47.0085735,45.366843 C46.9609,42.7797521 46.9705837,39.3996198 48.807502,37.5652562 L48.807502,37.5652562 Z M42.4009327,68.8910579 L30.5989184,68.8910579 L30.5989184,66.618 L42.4009327,66.618 L42.4009327,68.8910579 L42.4009327,68.8910579 Z M27.1278429,63.6426446 L27.1278429,60.4346281 L41.1971776,60.4346281 C42.0198429,60.4346281 42.6869735,59.7686281 42.6869735,58.9470248 C42.6869735,58.1252727 42.0198429,57.4594215 41.1971776,57.4594215 L27.1278429,57.4594215 L27.1278429,48.3420496 L45.8723061,48.3420496 L45.8723061,51.5500661 L32.5054102,51.5500661 C31.6825959,51.5500661 31.0156143,52.2162149 31.0156143,53.0376694 C31.0156143,53.8592727 31.6825959,54.5252727 32.5054102,54.5252727 L45.8723061,54.5252727 L45.8723061,63.6426446 L27.1278429,63.6426446 L27.1278429,63.6426446 Z M39.3186939,45.366843 L44.7023694,28.8559339 C44.8859122,28.2930248 44.7177143,27.6749256 44.2737551,27.2820496 C43.8300939,26.8894711 43.1951429,26.7970909 42.6573265,27.0467107 L40.1584918,28.2071901 L37.8929592,24.602876 C37.616602,24.1631405 37.1324184,23.897157 36.6106918,23.9062314 C36.0907531,23.9133719 35.6120816,24.1908099 35.3479408,24.6379835 L33.2208102,28.2393223 L30.2860612,27.0215702 C29.7457122,26.7975372 29.1243184,26.9097025 28.6971939,27.3086777 C28.2699204,27.7075041 28.1158755,28.3189091 28.3031429,28.8722975 L33.8930061,45.366843 L28.9716143,45.366843 C29.0248,42.3965455 28.9932163,38.1515207 26.2993673,35.4614876 C22.5444857,31.712281 18.7058776,27.0474545 18.7058776,20.876876 C18.7058776,11.0796694 26.6882041,3.10909091 36.499702,3.10909091 C46.3112,3.10909091 54.2936755,11.0796694 54.2936755,20.876876 C54.2936755,27.0474545 50.4552163,31.712281 46.7003347,35.4614876 C44.0066347,38.1513719 43.974902,42.3965455 44.0279388,45.366843 L39.3186939,45.366843 L39.3186939,45.366843 Z M36.6036898,44.0828926 L32.1797408,31.0291736 L33.2742939,31.4833388 C33.9607918,31.7679174 34.7517245,31.504314 35.1290898,30.8652397 L36.6708796,28.2550909 L38.3334918,30.9001983 C38.7326082,31.5351074 39.5424612,31.7741653 40.2237449,31.4583471 L40.8090857,31.1864132 L36.6036898,44.0828926 L36.6036898,44.0828926 Z" id="Shape" style="stroke-dasharray: 572, 574;stroke-dashoffset: 0;fill: #009f8E;" fill="none" stroke-width="1" stroke="#009F8E"></path>
    <path d="M71.5102041,16.545124 L64.9761082,16.545124 C64.1534429,16.545124 63.4863122,17.211124 63.4863122,18.0327273 C63.4863122,18.8543306 64.1534429,19.5203306 64.9761082,19.5203306 L71.5102041,19.5203306 C72.3328694,19.5203306 73,18.8543306 73,18.0327273 C73,17.2109752 72.3328694,16.545124 71.5102041,16.545124 L71.5102041,16.545124 Z" id="Shape" style="stroke-dasharray: 23, 25;stroke-dashoffset: 0;fill: #009f8E;" fill="none" stroke-width="1" stroke="#009F8E"></path>
    <path d="M63.1210143,13.3150909 C63.4291041,13.3150909 63.7400245,13.2198843 64.006549,13.0227769 L68.0160367,10.0567934 C68.6773571,9.56781818 68.8162061,8.63613223 68.3263612,7.97593388 C67.8365163,7.31573554 66.9033082,7.17709091 66.2425837,7.66621488 L62.2329469,10.6319008 C61.5717755,11.1210248 61.4327776,12.0527107 61.9226224,12.7127603 C62.2149204,13.1066777 62.6649878,13.3150909 63.1210143,13.3150909 L63.1210143,13.3150909 Z" id="Shape" style="stroke-dasharray: 20, 22;stroke-dashoffset: 0;fill: #009f8E;" fill="none" stroke-width="1" stroke="#009F8E"></path>
    <path d="M68.0160367,26.0082149 L64.006549,23.0425289 C63.3452286,22.5535537 62.4123184,22.6923471 61.9227714,23.3522479 C61.4329265,24.012595 61.5719245,24.9441322 62.2330959,25.4331074 L66.2425837,28.3990909 C66.5092571,28.5961983 66.8200286,28.691405 67.1281184,28.691405 C67.5841449,28.691405 68.0342122,28.4831405 68.3263612,28.0890744 C68.8162061,27.4290248 68.6772082,26.4973388 68.0160367,26.0082149 L68.0160367,26.0082149 Z" id="Shape" style="stroke-dasharray: 20, 22;fill: #009f8E;stroke-dashoffset: 0;" fill="none" stroke-width="1" stroke="#009F8E"></path>
    <path d="M9.51368776,18.0327273 C9.51368776,17.211124 8.84655714,16.545124 8.02389184,16.545124 L1.48979592,16.545124 C0.666981633,16.545124 0,17.211124 0,18.0327273 C0,18.8543306 0.666981633,19.5203306 1.48979592,19.5203306 L8.02389184,19.5203306 C8.84670612,19.5203306 9.51368776,18.8541818 9.51368776,18.0327273 L9.51368776,18.0327273 Z" id="Shape" style="stroke-dasharray: 23, 25;stroke-dashoffset: 0;fill: #009f8E;"></path>
    <path d="M10.7670531,10.6319008 L6.75741633,7.66621488 C6.0962449,7.17723967 5.16333469,7.31603306 4.67363878,7.97608264 C4.18379388,8.63628099 4.32279184,9.56781818 4.98396327,10.0567934 L8.9936,13.0227769 C9.26027347,13.2198843 9.5710449,13.3150909 9.87913469,13.3150909 C10.3351612,13.3150909 10.7852286,13.1068264 11.0773776,12.7127603 C11.5673714,12.0527107 11.4283735,11.1210248 10.7670531,10.6319008 L10.7670531,10.6319008 Z" id="Shape" style="stroke-dasharray: 20, 22;stroke-dashoffset: 0;fill: #009f8E;" fill="none" stroke-width="1" stroke="#009F8E"></path>
    <path d="M8.9936,23.0425289 L4.98396327,26.0082149 C4.32264286,26.4973388 4.18379388,27.4290248 4.67363878,28.0890744 C4.96578776,28.4829917 5.4158551,28.691405 5.87188163,28.691405 C6.17997143,28.691405 6.49089184,28.5961983 6.75741633,28.3990909 L10.7670531,25.4331074 C11.4282245,24.9441322 11.5672224,24.0124463 11.0773776,23.3523967 C10.5878306,22.6921983 9.65462245,22.553405 8.9936,23.0425289 L8.9936,23.0425289 Z" id="Shape" style="stroke-dasharray: 20, 22;stroke-dashoffset: 0;fill: #009f8E;" fill="none" stroke-width="1" stroke="#009F8E"></path>
</svg>