<?xml version="1.0" encoding="UTF-8" standalone="no"?>
<svg width="270px" height="46px" viewBox="0 0 270 46" version="1.1" xmlns="http://www.w3.org/2000/svg" xmlns:xlink="http://www.w3.org/1999/xlink" xmlns:sketch="http://www.bohemiancoding.com/sketch/ns">
    <!-- Generator: Sketch 3.3.2 (12043) - http://www.bohemiancoding.com/sketch -->
    <title>Imported Layers 3</title>
    <desc>Created with Sketch.</desc>
    <defs></defs>
    <g id="Page-1" stroke="none" stroke-width="1" fill="none" fill-rule="evenodd" sketch:type="MSPage">
        <g id="Homepage" sketch:type="MSArtboardGroup" transform="translate(-585.000000, -30.000000)" fill="#000000">
            <g id="Imported-Layers-3" sketch:type="MSLayerGroup" transform="translate(585.000000, 30.000000)">
                <path d="M96.1768995,45.4794737 L95.1112046,43.1964211 L91.7384818,43.1964211 L90.6822808,45.4794737 L89.5596222,44.9395789 L93.4189095,36.6014737 L97.3019316,44.9395789 L96.1768995,45.4794737 L96.1768995,45.4794737 Z M92.3294797,41.9253684 L94.5178332,41.9253684 L93.4189095,39.5672632 L92.3294797,41.9253684 L92.3294797,41.9253684 Z" id="Fill-1" sketch:type="MSShapeGroup"></path>
                <path d="M110.054669,45.4044211 C109.494526,45.4044211 108.953371,45.2906316 108.426458,45.0654737 C107.913785,44.8451579 107.469943,44.5425263 107.092559,44.1454737 C106.696187,43.746 106.394754,43.2908421 106.185887,42.7848421 C105.96278,42.2449474 105.855973,41.6905263 105.855973,41.1118947 C105.855973,40.5284211 105.96278,39.9715789 106.185887,39.4389474 C106.292694,39.1823158 106.418489,38.9426316 106.572766,38.7174737 C106.719922,38.4923158 106.897933,38.2768421 107.092559,38.0710526 C107.469943,37.6861053 107.913785,37.3786316 108.426458,37.1534737 C108.936757,36.9355789 109.482659,36.8290526 110.054669,36.8290526 C110.788076,36.8290526 111.466892,37.0009474 112.098239,37.352 C112.402046,37.5263158 112.682117,37.7248421 112.933706,37.9693684 C113.187669,38.2090526 113.40603,38.4777895 113.591162,38.7755789 L112.544455,39.4704211 C112.264383,39.0346316 111.913108,38.6932632 111.476386,38.4535789 C111.042038,38.2187368 110.567341,38.0976842 110.054669,38.0976842 C109.648803,38.0976842 109.261924,38.1775789 108.903528,38.3301053 C108.545132,38.4898947 108.231832,38.7077895 107.966001,38.9813684 C107.697798,39.2476842 107.488931,39.5745263 107.332281,39.9328421 C107.178004,40.3056842 107.099679,40.6978947 107.099679,41.1118947 C107.099679,41.5283158 107.178004,41.9156842 107.332281,42.2861053 C107.488931,42.6516842 107.697798,42.9712632 107.966001,43.2496842 C108.231832,43.5232632 108.545132,43.7411579 108.903528,43.8961053 C109.261924,44.0558947 109.648803,44.1382105 110.054669,44.1382105 C110.353728,44.1382105 110.640919,44.0922105 110.916244,44.0098947 C111.191568,43.9251579 111.450278,43.8041053 111.68288,43.6443158 C111.920228,43.4845263 112.126721,43.2981053 112.311853,43.0850526 C112.496985,42.8695789 112.644141,42.6250526 112.765189,42.3587368 L109.795959,42.3587368 L109.795959,41.0925263 L114.277099,41.0925263 C114.277099,41.1506316 114.277099,41.2281053 114.269979,41.3104211 C114.265232,41.3951579 114.258111,41.4750526 114.24387,41.5549474 C114.232003,41.6469474 114.220135,41.7341053 114.203521,41.8285263 C114.129943,42.3224211 113.966172,42.7896842 113.721703,43.2230526 C113.477234,43.6636842 113.166308,44.0486316 112.793671,44.3778947 C112.406793,44.7144211 111.977192,44.9662105 111.514362,45.1429474 C111.044412,45.3196842 110.560221,45.4044211 110.054669,45.4044211" id="Fill-2" sketch:type="MSShapeGroup"></path>
                <path d="M125.332794,38.2913684 L125.332794,40.3056842 L128.776721,40.3056842 L128.776721,41.5767368 L125.332794,41.5767368 L125.332794,43.9372632 L128.888275,43.9372632 L128.888275,45.2034737 L124.089088,45.2034737 L124.089088,37.0251579 L128.888275,37.0251579 L128.888275,38.2913684 L125.332794,38.2913684" id="Fill-3" sketch:type="MSShapeGroup"></path>
                <path d="M140.371197,39.6495789 L140.371197,45.2034737 L139.127491,45.2034737 L139.127491,36.6474737 L145.141903,42.6202105 L145.141903,37.0251579 L146.385609,37.0251579 L146.385609,45.632 L140.371197,39.6495789" id="Fill-4" sketch:type="MSShapeGroup"></path>
                <path d="M160.493607,45.3632632 C159.933464,45.3632632 159.394683,45.2494737 158.87489,45.0267368 C158.376458,44.8112632 157.934989,44.5134737 157.545738,44.114 C157.15886,43.7242105 156.862174,43.2690526 156.655681,42.7606316 C156.434947,42.2328421 156.325766,41.6808421 156.325766,41.1118947 C156.325766,40.5381053 156.434947,39.9836842 156.655681,39.4486316 C156.862174,38.9377895 157.15886,38.4898947 157.545738,38.1025263 C157.927869,37.72 158.371711,37.4101053 158.87489,37.1849474 C159.131226,37.0711579 159.394683,36.9864211 159.662887,36.9355789 C159.933464,36.8798947 160.208788,36.8556842 160.493607,36.8556842 C161.070364,36.8556842 161.611518,36.9670526 162.121818,37.1849474 C162.363913,37.2987368 162.594141,37.4294737 162.814875,37.5723158 C163.040356,37.7248421 163.24685,37.8967368 163.439102,38.0976842 L162.565659,38.9934737 C162.285588,38.7077895 161.967541,38.4947368 161.611518,38.3518947 C161.260242,38.1969474 160.887605,38.1243158 160.493607,38.1243158 C160.092488,38.1243158 159.715103,38.2042105 159.359081,38.3567368 C159.003058,38.5165263 158.694505,38.7271579 158.431048,39.0007368 C158.167591,39.2670526 157.958724,39.5890526 157.804448,39.9546316 C157.647798,40.3177895 157.569473,40.7051579 157.569473,41.1118947 C157.569473,41.5162105 157.647798,41.9084211 157.804448,42.2715789 C157.958724,42.6323158 158.167591,42.9518947 158.431048,43.2182105 C158.694505,43.4845263 159.003058,43.6975789 159.359081,43.8549474 C159.715103,44.0171579 160.092488,44.0922105 160.493607,44.0922105 C160.887605,44.0922105 161.260242,44.022 161.611518,43.8743158 C161.967541,43.7242105 162.285588,43.5087368 162.565659,43.2230526 L163.439102,44.114 C163.054597,44.5134737 162.613129,44.8112632 162.121818,45.0267368 C161.597277,45.2494737 161.053749,45.3632632 160.493607,45.3632632" id="Fill-5" sketch:type="MSShapeGroup"></path>
                <path d="M176.695018,42.0536842 L176.695018,45.2034737 L175.448938,45.2034737 L175.448938,42.0536842 L172.080962,37.4609474 L173.075453,36.6983158 L176.068418,40.7826316 L179.080371,36.6983158 L180.077234,37.4609474 L176.695018,42.0536842" id="Fill-6" sketch:type="MSShapeGroup"></path>
                <path d="M10.4347398,25.7043158 L9.99801853,25.7043158 C9.06286529,25.6825263 8.10397719,25.5638947 7.11898076,25.3387368 C6.13398432,25.1208421 5.21544547,24.8206316 4.3657377,24.4381053 C3.43295795,23.9926316 2.611732,23.4745263 1.90443336,22.8813684 C1.1995082,22.2930526 0.653606557,21.6442105 0.257234498,20.9445263 L4.77160371,18.2837895 C4.91638632,18.5283158 5.16085531,18.7873684 5.50501069,19.0415789 C5.8444191,19.2957895 6.24791162,19.5257895 6.71786172,19.7388421 C7.18069138,19.9518947 7.6957377,20.1189474 8.25588026,20.2472632 C8.81364932,20.3731579 9.38803279,20.4385263 9.96953671,20.4385263 L10.1214398,20.4385263 C10.6008838,20.4821053 11.1776408,20.4385263 11.8493371,20.3102105 C12.523407,20.1843158 13.1927299,19.9615789 13.8549323,19.6444211 C14.9965788,19.1117895 15.6208054,18.4096842 15.7228653,17.5138947 C15.7418532,17.2645263 15.7228653,17.066 15.6635282,16.928 C15.5970706,16.79 15.5163721,16.6713684 15.4143122,16.5648421 C15.036928,16.1435789 14.469665,15.8215789 13.6982823,15.6133684 C12.7251532,15.3155789 11.6024947,15.1703158 10.3398004,15.1703158 C9.98852459,15.1703158 9.48771917,15.1461053 8.83263721,15.1025263 C8.17755524,15.0637895 7.47025659,14.9572632 6.70124733,14.7902105 C4.77160371,14.3205263 3.25494654,13.5288421 2.15839629,12.4054737 C0.952665716,11.1368421 0.413884533,9.57042105 0.539679259,7.71105263 L0.539679259,7.67715789 C0.596642908,6.79347368 0.803136137,5.95336842 1.14729152,5.16652632 C1.48669993,4.38694737 1.98038489,3.70178947 2.62122594,3.10863158 C3.67980043,2.07 5.03980756,1.33884211 6.70124733,0.917578947 C7.75744833,0.641578947 8.87298646,0.508421053 10.0478617,0.508421053 C11.2132431,0.508421053 12.3667569,0.651263158 13.4822951,0.951473684 C14.7687242,1.26621053 15.8818888,1.73105263 16.8289095,2.34115789 C17.7711832,2.96094737 18.5093371,3.66547368 19.0528653,4.47410526 L14.635809,7.33094737 C14.5100143,7.13726316 14.2513043,6.91694737 13.8549323,6.66273684 C13.4633072,6.41094737 12.9126586,6.19789474 12.2077334,6.026 C11.5241696,5.85894737 10.807377,5.76936842 10.0597292,5.75968421 C9.31208125,5.74757895 8.64038489,5.82747368 8.03514612,5.99694737 C7.49873842,6.12042105 7.0786315,6.28263158 6.77482537,6.47147368 C6.4781397,6.66273684 6.24791162,6.86126316 6.09126158,7.05978947 C5.93698503,7.26073684 5.83729865,7.44957895 5.79694939,7.63115789 C5.75422666,7.81273684 5.73761226,7.94105263 5.73761226,8.02821053 C5.73761226,8.26063158 5.76134711,8.43494737 5.81356379,8.55357895 C5.86340699,8.66494737 5.92274412,8.75936842 5.98445474,8.82231579 C6.29538133,9.13705263 6.85552388,9.39852632 7.66488239,9.59947368 C8.47424091,9.80042105 9.36667142,9.89968421 10.3398004,9.89968421 C12.3335282,9.89968421 14.0875339,10.1684211 15.6160584,10.7107368 C17.1374626,11.2530526 18.366928,12.0253684 19.2997078,13.0422105 C19.9025731,13.7201053 20.3464148,14.4754737 20.6383535,15.3131579 C20.9302922,16.1484211 21.0228582,17.0393684 20.9207983,17.9981053 C20.7950036,19.3708421 20.3298004,20.6031579 19.5180684,21.6902105 C18.7087099,22.7821053 17.6026657,23.6754737 16.1904419,24.3703158 C15.3217463,24.7988421 14.381846,25.1256842 13.3754882,25.3581053 C12.3667569,25.5881053 11.3865075,25.7043158 10.4347398,25.7043158" id="Fill-7" sketch:type="MSShapeGroup"></path>
                <path d="M41.6128439,20.1504211 L39.3722737,25.3871579 L33.6141981,25.3871579 L44.0361725,0.852210526 L49.5450321,0.852210526 L60.0002352,25.3871579 L54.2136778,25.3871579 L52.0063364,20.1504211 L41.6128439,20.1504211 L41.6128439,20.1504211 Z M46.7775481,7.96284211 L43.8842694,14.7587368 L49.6993086,14.7587368 L46.7775481,7.96284211 L46.7775481,7.96284211 Z" id="Fill-8" sketch:type="MSShapeGroup"></path>
                <path d="M81.0364362,6.25115789 L81.0364362,10.9455789 L91.2068211,10.9455789 L91.2068211,16.3372632 L81.0364362,16.3372632 L81.0364362,25.3871579 L75.7435638,25.3871579 L75.7435638,0.852210526 L91.6150606,0.852210526 L91.6150606,6.25115789 L81.0364362,6.25115789" id="Fill-9" sketch:type="MSShapeGroup"></path>
                <path d="M113.830884,20.1504211 L111.58794,25.3871579 L105.829865,25.3871579 L116.256586,0.852210526 L121.763072,0.852210526 L132.218275,25.3871579 L126.429344,25.3871579 L124.222003,20.1504211 L113.830884,20.1504211 L113.830884,20.1504211 Z M118.993215,7.96284211 L116.104683,14.7587368 L121.919722,14.7587368 L118.993215,7.96284211 L118.993215,7.96284211 Z" id="Fill-10" sketch:type="MSShapeGroup"></path>
                <path d="M166.852174,25.3871579 L160.379679,25.3871579 L155.960249,18.9471579 L153.223621,18.9471579 L153.223621,25.3871579 L147.933122,25.3871579 L147.933122,0.852210526 L156.802837,0.852210526 C158.167591,0.852210526 159.418418,1.02652632 160.548197,1.37515789 C161.680349,1.72621053 162.684334,2.24189474 163.555403,2.91736842 C164.0301,3.32168421 164.464448,3.75747368 164.844205,4.232 C165.22871,4.71136842 165.546757,5.22221053 165.791226,5.77421053 C166.337128,6.93873684 166.602958,8.19526316 166.602958,9.54621053 C166.602958,10.8438947 166.370356,12.0689474 165.919394,13.2334737 C165.480299,14.352 164.829964,15.3494737 163.958895,16.2162105 C163.272958,16.9134737 162.515816,17.4630526 161.68747,17.8649474 L166.852174,25.3871579 L166.852174,25.3871579 Z M153.223621,13.5482105 L156.833692,13.5482105 C158.307627,13.5917895 159.444526,13.202 160.251511,12.374 C160.95881,11.6573684 161.310086,10.7155789 161.310086,9.54621053 C161.310086,7.35031579 159.810043,6.25115789 156.802837,6.25115789 L153.223621,6.25115789 L153.223621,13.5482105 L153.223621,13.5482105 Z" id="Fill-11" sketch:type="MSShapeGroup"></path>
                <path d="M193.145645,26.0553684 C191.424868,26.0553684 189.772922,25.7164211 188.199301,25.0385263 C186.661283,24.3678947 185.315517,23.4454737 184.152509,22.2736842 C183.010862,21.0922105 182.106565,19.7218947 181.444362,18.1530526 C180.779786,16.5478947 180.447498,14.8604211 180.447498,13.1051579 C180.447498,11.3910526 180.779786,9.71084211 181.444362,8.05968421 C181.77665,7.29705263 182.165902,6.57557895 182.612117,5.88557895 C183.058332,5.198 183.571005,4.55642105 184.152509,3.96568421 C184.753001,3.35073684 185.391468,2.81568421 186.063165,2.36294737 C186.739608,1.90536842 187.446907,1.50831579 188.199301,1.17178947 C189.772922,0.496315789 191.424868,0.154947368 193.145645,0.154947368 C194.826073,0.154947368 196.475645,0.496315789 198.091989,1.17178947 C198.839636,1.50831579 199.549309,1.90536842 200.223378,2.36294737 C200.895075,2.81568421 201.526422,3.35073684 202.105552,3.96568421 C202.708418,4.55642105 203.230584,5.198 203.6768,5.88557895 C204.120641,6.57557895 204.512267,7.29705263 204.842181,8.05968421 C205.50913,9.71084211 205.841418,11.3910526 205.841418,13.1051579 C205.841418,14.8604211 205.50913,16.5478947 204.842181,18.1530526 C204.512267,18.9156842 204.120641,19.6395789 203.6768,20.3223158 C203.230584,21.0147368 202.708418,21.6635789 202.105552,22.2736842 C201.526422,22.8668421 200.895075,23.3946316 200.223378,23.8497895 C199.549309,24.3073684 198.839636,24.6995789 198.091989,25.0385263 C196.475645,25.7164211 194.826073,26.0553684 193.145645,26.0553684 L193.145645,26.0553684 Z M193.145645,5.55389474 C192.129793,5.55389474 191.173279,5.75242105 190.266607,6.15431579 C189.364683,6.55378947 188.581433,7.09610526 187.916857,7.774 C187.252281,8.44947368 186.722994,9.24842105 186.328995,10.1684211 C185.932623,11.0884211 185.737997,12.0689474 185.737997,13.1051579 C185.737997,14.1413684 185.932623,15.1218947 186.328995,16.0394737 C186.722994,16.9618947 187.252281,17.7608421 187.916857,18.4363158 C188.581433,19.1117895 189.364683,19.6541053 190.266607,20.0535789 C191.173279,20.4578947 192.129793,20.6588421 193.145645,20.6588421 C194.15675,20.6588421 195.120385,20.4578947 196.019936,20.0535789 C196.92186,19.6541053 197.707484,19.1117895 198.369686,18.4363158 C199.036636,17.7608421 199.56355,16.9618947 199.959922,16.0394737 C200.35392,15.1218947 200.553293,14.1413684 200.553293,13.1051579 C200.553293,12.0689474 200.35392,11.0884211 199.959922,10.1684211 C199.56355,9.24842105 199.036636,8.44947368 198.369686,7.774 C197.707484,7.09610526 196.92186,6.55378947 196.019936,6.15431579 C195.120385,5.75242105 194.15675,5.55389474 193.145645,5.55389474 L193.145645,5.55389474 Z" id="Fill-12" sketch:type="MSShapeGroup"></path>
                <path d="M226.220164,6.25115789 L226.220164,10.9455789 L236.395296,10.9455789 L236.395296,16.3372632 L226.220164,16.3372632 L226.220164,25.3871579 L220.932038,25.3871579 L220.932038,0.852210526 L236.796415,0.852210526 L236.796415,6.25115789 L226.220164,6.25115789" id="Fill-13" sketch:type="MSShapeGroup"></path>
                <path d="M258.798624,6.25115789 L258.798624,10.9455789 L268.971383,10.9455789 L268.971383,16.3372632 L258.798624,16.3372632 L258.798624,25.3871579 L253.505752,25.3871579 L253.505752,0.852210526 L269.377249,0.852210526 L269.377249,6.25115789 L258.798624,6.25115789" id="Fill-14" sketch:type="MSShapeGroup"></path>
            </g>
        </g>
    </g>
</svg>