<svg xmlns="http://www.w3.org/2000/svg" id="icon_4" x="0px" y="0px" width="100%" height="100%" viewBox="0 0 90 90" enable-background="new 0 0 90 90" class="finished">
    <path d="M62.0162308,49.4922031 L60.2667692,49.1570724 C59.4465577,48.9997909 58.8008077,48.4638237 58.4955,47.685885 C58.1889808,46.9091561 58.2980192,46.0779836 58.7923269,45.4053025 L59.8911923,43.9099178 C60.2449615,43.4283943 60.1940769,42.7605527 59.7700385,42.3383122 L57.3966346,39.96941 C56.9859231,39.560478 56.3401731,39.4999851 55.8604038,39.8230172 L54.3859615,40.8199403 C53.6953846,41.2905751 52.857,41.3667961 52.0900962,41.0316654 C51.3244038,40.6989544 50.8119231,40.0335325 50.6847115,39.2071994 L50.4024231,37.3742644 C50.3127692,36.7850635 49.8039231,36.3495146 49.2066346,36.3495146 L45.8506731,36.3495146 C45.2703462,36.3495146 44.7699808,36.7620762 44.6609423,37.3319193 L44.2272115,39.5883047 C44.0733462,40.3892308 43.5511731,41.0280358 42.7963846,41.3401792 C42.0391731,41.6559522 41.2201731,41.5700523 40.5429231,41.1115161 L38.6383846,39.824227 C38.1574038,39.5011949 37.5128654,39.5616878 37.1021538,39.9706199 L34.72875,42.339522 C34.3047115,42.7617625 34.2538269,43.4283943 34.6075962,43.9111277 L35.7064615,45.4065123 C36.2007692,46.0791934 36.3098077,46.9103659 36.0032885,47.6870948 C35.6979808,48.4650336 35.0522308,49.0010007 34.2320192,49.1582823 L32.4825577,49.493413 C31.9131346,49.6023002 31.5,50.1007618 31.5,50.6814937 L31.5,54.0328006 C31.5,54.6292606 31.9361538,55.137401 32.5273846,55.2281404 L34.3628654,55.5100373 C35.1903462,55.6370724 35.8554808,56.1488424 36.1898654,56.9134727 C36.52425,57.6793129 36.4467115,58.514115 35.9778462,59.2061538 L34.9795385,60.6785512 C34.6536346,61.157655 34.7154231,61.8025093 35.1261346,62.2126512 L37.4983269,64.5827633 C37.9199423,65.0050037 38.5875,65.0546079 39.0721154,64.7037491 L40.5695769,63.6064078 C41.2419808,63.1127857 42.0767308,63.0051083 42.8533269,63.3099925 C43.6323462,63.6148768 44.1690577,64.2597311 44.3265577,65.0788051 L44.6621538,66.8258402 C44.7711923,67.3932636 45.2703462,67.8058252 45.8518846,67.8058252 L49.2078462,67.8058252 C49.8051346,67.8058252 50.3139808,67.3702763 50.4048462,66.7798656 L50.6035385,65.4913667 C50.73075,64.6589843 51.2723077,63.9717849 52.0489038,63.6499627 C52.8291346,63.3293503 53.6978077,63.4346079 54.3762692,63.9306497 L55.4290962,64.7025392 C55.9137115,65.0570276 56.5812692,65.0050037 57.0028846,64.5815534 L59.3750769,62.2114414 C59.7857885,61.8012995 59.8475769,61.157655 59.5216731,60.6773413 L58.5233654,59.204944 C58.0545,58.514115 57.9769615,57.6781031 58.3113462,56.9122629 C58.6445192,56.1476326 59.3108654,55.6358626 60.1383462,55.5088275 L61.9738269,55.2269305 C62.5638462,55.1361912 63,54.6280508 63,54.0315907 L63,50.6802838 C63,50.1007618 62.5868654,49.6023002 62.0162308,49.4922031 L62.0162308,49.4922031 Z M60.5769231,52.9947423 L59.7688269,53.1193577 C58.1284038,53.3710082 56.7533077,54.4284242 56.0905962,55.9467961 C55.4266731,57.4663779 55.5865962,59.1916355 56.5170577,60.5624048 L56.9544231,61.2072591 L56.0239615,62.1364302 L55.8095192,61.9791486 C54.4404808,60.9798058 52.6898077,60.7680807 51.1220769,61.4141449 C49.5543462,62.0626288 48.4663846,63.4491262 48.2083269,65.12236 L48.1683462,65.386109 L46.8526154,65.386109 L46.7060192,64.6202689 C46.3922308,62.9917999 45.2824615,61.6597461 43.7389615,61.054817 C42.19425,60.449888 40.4738654,60.6749216 39.1351154,61.6524869 L38.4760385,62.1352203 L37.5455769,61.2060493 L37.9829423,60.5611949 C38.9134038,59.1892158 39.0721154,57.4639582 38.4094038,55.9455863 C37.7466923,54.4272143 36.3703846,53.3697984 34.7311731,53.1181479 L33.9230769,52.9947423 L33.9230769,51.6808364 L34.6899808,51.5344436 C36.3207115,51.2210904 37.6546154,50.1128603 38.2603846,48.5715011 C38.8661538,47.028932 38.6420192,45.3109335 37.6618846,43.9740403 L37.1784808,43.3158775 L38.1089423,42.3867065 L39.186,43.1150411 C40.5271731,44.0248544 42.2269615,44.1954444 43.7256346,43.575997 C45.2243077,42.9553398 46.3025769,41.6353846 46.6090962,40.0444212 L46.8526154,38.7692308 L48.1683462,38.7692308 L48.2931346,39.5762061 C48.5451346,41.214354 49.6040192,42.5875429 51.1245,43.2493353 C52.6461923,43.9123376 54.3738462,43.7526363 55.7465192,42.8234653 L56.3922692,42.3867065 L57.3227308,43.3158775 L56.8393269,43.9740403 C55.8579808,45.3097237 55.6350577,47.0277222 56.2408269,48.5715011 C56.8465962,50.1128603 58.1817115,51.2210904 59.8112308,51.5344436 L60.5769231,51.6808364 L60.5769231,52.9947423 L60.5769231,52.9947423 Z" id="Shape" style="stroke-dasharray: 223, 225; stroke-dashoffset: 0;" fill="#009F8E" stroke-width="1" stroke="#009F8E"></path>
    <path d="M47.25,45.4368932 C43.96917,45.4368932 41.3,48.1023612 41.3,51.3786408 C41.3,54.6549204 43.96917,57.3203883 47.25,57.3203883 C50.53083,57.3203883 53.2,54.6549204 53.2,51.3786408 C53.2,48.1023612 50.53083,45.4368932 47.25,45.4368932 L47.25,45.4368932 Z M47.25,54.9436893 C45.28174,54.9436893 43.68,53.3441709 43.68,51.3786408 C43.68,49.4131107 45.28174,47.8135922 47.25,47.8135922 C49.21826,47.8135922 50.82,49.4131107 50.82,51.3786408 C50.82,53.3441709 49.21826,54.9436893 47.25,54.9436893 L47.25,54.9436893 Z" id="Shape" style="stroke-dasharray: 60, 62; stroke-dashoffset: 0;" fill="#009F8E" stroke-width="1" stroke="#009F8E"></path>
    <path d="M15.8666667,5.59223301 L20.5333333,5.59223301 C21.1785,5.59223301 21.7,5.12353398 21.7,4.54368932 C21.7,3.96384466 21.1785,3.49514563 20.5333333,3.49514563 L15.8666667,3.49514563 C15.2215,3.49514563 14.7,3.96384466 14.7,4.54368932 C14.7,5.12353398 15.2215,5.59223301 15.8666667,5.59223301 L15.8666667,5.59223301 Z" id="Shape" style="stroke-dasharray: 17, 19; stroke-dashoffset: 0;" fill="#009F8E" stroke-width="1" stroke="#009F8E"></path>
    <path d="M24.2666667,5.59223301 L25.4333333,5.59223301 C26.0785,5.59223301 26.6,5.12353398 26.6,4.54368932 C26.6,3.96384466 26.0785,3.49514563 25.4333333,3.49514563 L24.2666667,3.49514563 C23.6215,3.49514563 23.1,3.96384466 23.1,4.54368932 C23.1,5.12353398 23.6215,5.59223301 24.2666667,5.59223301 L24.2666667,5.59223301 Z" id="Shape" style="stroke-dasharray: 10, 12; stroke-dashoffset: 0;" fill="#009F8E" stroke-width="1" stroke="#009F8E"></path>
    <path d="M16.1,63.6116505 C16.1,66.3102524 18.29765,68.5048544 21,68.5048544 C23.70235,68.5048544 25.9,66.3102524 25.9,63.6116505 C25.9,60.9130485 23.70235,58.7184466 21,58.7184466 C18.29765,58.7184466 16.1,60.9130485 16.1,63.6116505 L16.1,63.6116505 Z M23.45,63.6116505 C23.45,64.9609515 22.351175,66.0582524 21,66.0582524 C19.648825,66.0582524 18.55,64.9609515 18.55,63.6116505 C18.55,62.2623495 19.648825,61.1650485 21,61.1650485 C22.351175,61.1650485 23.45,62.2623495 23.45,63.6116505 L23.45,63.6116505 Z" id="Shape" style="stroke-dasharray: 47, 49; stroke-dashoffset: 0;" fill="#009F8E" stroke-width="1" stroke="#009F8E"></path>
    <path d="M27.9382353,55.2 L2.42941176,55.2 L2.42941176,9.6 L38.8705882,9.6 L38.8705882,36 C38.8705882,36.6636 39.4135618,37.2 40.0852941,37.2 C40.7570265,37.2 41.3,36.6636 41.3,36 L41.3,5.286 C41.3,2.3724 38.8985265,0 35.9492206,0 L5.35077941,0 C2.40147353,0 0,2.3724 0,5.286 L0,66.7128 C0,69.6276 2.40147353,72 5.35077941,72 L26.7235294,72 C27.3952618,72 27.9382353,71.4636 27.9382353,70.8 C27.9382353,70.1364 27.3952618,69.6 26.7235294,69.6 L5.35077941,69.6 C3.74007941,69.6 2.42941176,68.3052 2.42941176,66.714 L2.42941176,57.6 L27.9382353,57.6 C28.6099676,57.6 29.1529412,57.0636 29.1529412,56.4 C29.1529412,55.7364 28.6099676,55.2 27.9382353,55.2 L27.9382353,55.2 Z M5.35077941,2.4 L35.9480059,2.4 C37.5599206,2.4 38.8705882,3.6948 38.8705882,5.286 L38.8705882,7.2 L2.42941176,7.2 L2.42941176,5.286 C2.42941176,3.6948 3.74007941,2.4 5.35077941,2.4 L5.35077941,2.4 Z" id="Shape" style="stroke-dasharray: 456, 458; stroke-dashoffset: 0;" fill="#009F8E" stroke-width="1" stroke="#009F8E"></path>
</svg>