<svg xmlns="http://www.w3.org/2000/svg" id="icon_5" x="0px" y="0px" width="100%" height="100%" viewBox="0 0 90 90" enable-background="new 0 0 90 90" class="finished">
    <path d="M27.037498,44.3396343 L26.0977872,44.3396343 L26.7622768,43.6711261 C28.4443936,41.9778882 28.4443936,39.2230972 26.7622768,37.5301753 C26.7569357,37.52496 26.7515947,37.5197447 26.7462536,37.5143713 C25.0620947,35.8367793 22.3354883,35.8421526 20.6574559,37.5300172 L19.9931235,38.1983674 L19.9931235,37.2534477 C19.9931235,34.8589873 18.0566784,32.9108312 15.676612,32.9108312 C13.2963885,32.9108312 11.3599434,34.8588293 11.3599434,37.2534477 L11.3599434,38.1982093 L10.6957681,37.5298592 C9.01270878,35.8372534 6.2743207,35.8375695 4.59141848,37.5301753 C2.90883043,39.2232552 2.90867334,41.9783623 4.59141848,43.6716003 L5.25543674,44.3397923 L4.31619728,44.3397923 C1.93628795,44.3396343 0,46.2877904 0,48.6822508 C0,51.0767111 1.93628795,53.0248672 4.31651146,53.0248672 L5.25575092,53.0248672 L4.59141848,53.6932173 C2.90867334,55.3861392 2.90867334,58.1410883 4.59126139,59.8343262 C4.59754498,59.8406478 4.60398565,59.8469694 4.61042633,59.853291 C6.29458527,61.5270901 9.01899237,61.5212426 10.6960823,59.8346423 L11.3601005,59.1666083 L11.3601005,60.111528 C11.3601005,62.5058303 13.2967027,64.4539864 15.6769262,64.4539864 C18.0568355,64.4539864 19.9931235,62.5059883 19.9931235,60.111528 L19.9931235,59.1664502 L20.6574559,59.8348004 C22.3406723,61.5275642 25.0792175,61.5274062 26.7619626,59.8343262 C28.4447077,58.1412463 28.4447077,55.3862973 26.7619626,53.6932173 L26.0974731,53.0248672 L27.0373409,53.0248672 C29.4172502,53.0248672 31.3535382,51.0767111 31.3535382,48.6820927 C31.3536953,46.2876324 29.4175644,44.3396343 27.037498,44.3396343 L27.037498,44.3396343 Z M27.037498,50.1801516 L24.5100814,50.1801516 C23.8990024,50.1801516 23.3570428,50.5750929 23.1666501,51.1593659 C23.0441201,51.5351845 22.8917431,51.9049975 22.7137604,52.2586905 C22.4375967,52.8074045 22.543318,53.4722778 22.9754719,53.9070451 L24.7626817,55.7049054 C25.3431282,56.2888623 25.3431282,57.2391554 24.7626817,57.8231123 C24.1820781,58.4070692 23.2373404,58.4070692 22.6568939,57.8231123 L20.8699983,56.025252 C20.4378445,55.5906427 19.7774393,55.4842819 19.2321808,55.7617997 C18.8799857,55.9410168 18.5122386,56.0943154 18.1388363,56.2175864 C17.5582327,56.4092886 17.1658226,56.9543677 17.1658226,57.5691424 L17.1658226,60.111686 C17.1658226,60.9376018 16.4978771,61.6094288 15.6769262,61.6094288 C14.8558182,61.6094288 14.1878727,60.9376018 14.1878727,60.111686 L14.1878727,57.5689844 C14.1878727,56.9543677 13.7956196,56.4094467 13.2153302,56.2175864 C12.8412996,56.0939993 12.4733954,55.9407007 12.1218286,55.7616417 C11.9191829,55.6585998 11.7008282,55.6085012 11.4840443,55.6085012 C11.1173969,55.6085012 10.7554622,55.7518432 10.4840111,56.025094 L8.69711552,57.8227962 C8.1165119,58.4067531 7.1717743,58.4070692 6.59132776,57.8229542 C6.5877147,57.8194774 6.58425872,57.8158425 6.58064566,57.8123656 C6.01072414,57.2273024 6.01418011,56.2850694 6.59101358,55.7047474 L8.37838047,53.906413 C8.8105343,53.4714876 8.9160986,52.8062982 8.63977777,52.2577422 C8.46305183,51.9065779 8.31051771,51.5366068 8.1868881,51.1582596 C7.99618117,50.5746188 7.4545358,50.1801516 6.84377095,50.1801516 L4.31651146,50.1801516 C3.49556056,50.1801516 2.82761505,49.5080085 2.82761505,48.6820927 C2.82761505,47.8561769 3.49540347,47.1843499 4.31651146,47.1843499 L6.84377095,47.1843499 C7.45422162,47.1843499 7.9957099,46.7901988 8.18673101,46.206716 C8.31036062,45.8288429 8.46289474,45.4587138 8.64024904,45.1062852 C8.9160986,44.5577292 8.8105343,43.8928559 8.37853756,43.4582466 L6.59148485,41.6600702 C6.01088123,41.0759553 6.01088123,40.1253461 6.59132776,39.5413892 C7.17193138,38.9579065 8.11635481,38.9575904 8.69680134,39.5413892 L10.4841682,41.3397236 C10.9163221,41.774491 11.5771985,41.8808518 12.1226141,41.6028598 C12.4722958,41.424749 12.8400428,41.2714505 13.2156444,41.1472312 C13.7957767,40.9553709 14.1878727,40.4104499 14.1878727,39.7959913 L14.1878727,37.2531316 C14.1878727,36.4272158 14.8559753,35.7552308 15.6770833,35.7552308 C16.4978771,35.7552308 17.1656655,36.4272158 17.1656655,37.2531316 L17.1656655,39.7956752 C17.1656655,40.4101338 17.5577614,40.9550549 18.1378938,41.1469151 C18.5122386,41.2706603 18.8801428,41.4242749 19.2312383,41.6030179 C19.7763396,41.8803776 20.4372161,41.774649 20.8693699,41.3397236 L22.6568939,39.5413892 C23.2376546,38.9575904 24.1820781,38.9572743 24.7623675,39.5410732 C24.7653522,39.544234 24.7683369,39.5470787 24.7713216,39.5500814 C25.3429711,40.1348285 25.3401435,41.0788 24.7626817,41.6597541 L22.9754719,43.4579305 C22.543318,43.8928559 22.4379108,44.5577292 22.7139175,45.1062852 C22.8912718,45.4587138 23.0438059,45.8288429 23.1671213,46.2062419 C23.3578283,46.7898827 23.8994736,47.1843499 24.5102385,47.1843499 L27.0376551,47.1843499 C27.8584489,47.1843499 28.5262373,47.856335 28.5262373,48.6824088 C28.5260802,49.5081665 27.8582918,50.1801516 27.037498,50.1801516 L27.037498,50.1801516 Z M59.2140292,36.6451526 C58.4331362,36.6451526 57.8002217,36.0084105 57.8002217,35.2227948 L57.8002217,18.8851188 C57.8002217,18.2335209 57.2733428,17.7034556 56.6258189,17.7034556 L54.0372944,17.7034556 C53.2564014,17.7034556 52.6234869,17.0667134 52.6234869,16.2810978 C52.6234869,15.4954821 53.2564014,14.8587399 54.0372944,14.8587399 L56.6258189,14.8587399 C58.8324583,14.8587399 60.6278367,16.6649763 60.6278367,18.8851188 L60.6278367,35.2227948 C60.6278367,36.0084105 59.9949222,36.6451526 59.2140292,36.6451526 L59.2140292,36.6451526 Z M15.6770833,43.9808841 C13.1001834,43.9808841 11.003664,46.0900827 11.003664,48.6825668 C11.003664,51.274893 13.1001834,53.3840916 15.6770833,53.3840916 C18.2539831,53.3840916 20.3503455,51.274893 20.3503455,48.6825668 C20.3503455,46.0900827 18.2539831,43.9808841 15.6770833,43.9808841 L15.6770833,43.9808841 Z M15.6770833,50.5393759 C14.6592989,50.5393759 13.831279,49.7063484 13.831279,48.6825668 C13.831279,47.6587853 14.6592989,46.8255997 15.6770833,46.8255997 C16.6948676,46.8255997 17.5227304,47.6586273 17.5227304,48.6825668 C17.5227304,49.7065064 16.6947105,50.5393759 15.6770833,50.5393759 L15.6770833,50.5393759 Z M46.8094391,0 L37.8333322,0 C37.0524392,0 36.4195247,0.636742182 36.4195247,1.42235782 L36.4195247,61.2709076 C36.4195247,62.0565233 37.0524392,62.6932654 37.8333322,62.6932654 L46.8094391,62.6932654 C47.5903321,62.6932654 48.2232466,62.0565233 48.2232466,61.2709076 L48.2232466,1.42235782 C48.2232466,0.636742182 47.5903321,0 46.8094391,0 L46.8094391,0 Z M45.3956316,59.8485498 L39.2471398,59.8485498 L39.2471398,52.7182701 L41.1518527,52.7182701 C41.9327457,52.7182701 42.5656602,52.0815279 42.5656602,51.2959123 C42.5656602,50.5102966 41.9327457,49.8735545 41.1518527,49.8735545 L39.2471398,49.8735545 L39.2471398,42.7435908 L41.1518527,42.7435908 C41.9327457,42.7435908 42.5656602,42.1068486 42.5656602,41.321233 C42.5656602,40.5356174 41.9327457,39.8988752 41.1518527,39.8988752 L39.2471398,39.8988752 L39.2471398,32.7690696 L41.1518527,32.7690696 C41.9327457,32.7690696 42.5656602,32.1323274 42.5656602,31.3467117 C42.5656602,30.5610961 41.9327457,29.9243539 41.1518527,29.9243539 L39.2471398,29.9243539 L39.2471398,22.7943903 L41.1518527,22.7943903 C41.9327457,22.7943903 42.5656602,22.1576481 42.5656602,21.3720325 C42.5656602,20.5864168 41.9327457,19.9496746 41.1518527,19.9496746 L39.2471398,19.9496746 L39.2471398,12.819553 L41.1518527,12.819553 C41.9327457,12.819553 42.5656602,12.1828108 42.5656602,11.3971951 C42.5656602,10.6115795 41.9327457,9.97483732 41.1518527,9.97483732 L39.2471398,9.97483732 L39.2471398,2.84471563 L45.3956316,2.84471563 L45.3956316,59.8485498 L45.3956316,59.8485498 Z M71,5.77350841 L71,56.919441 C71,57.7050566 70.3670855,58.3417988 69.5861925,58.3417988 L61.3949059,58.3417988 C60.6140128,58.3417988 59.9810983,57.7050566 59.9810983,56.919441 C59.9810983,56.1338253 60.6140128,55.4970831 61.3949059,55.4970831 L68.172385,55.4970831 L68.172385,7.19586623 L53.3871001,7.19586623 C52.606207,7.19586623 51.9732925,6.55912405 51.9732925,5.77350841 C51.9732925,4.98789278 52.606207,4.3511506 53.3871001,4.3511506 L69.5861925,4.3511506 C70.3669284,4.3511506 71,4.98805082 71,5.77350841 L71,5.77350841 Z M55.451102,67.3255688 L55.451102,67.5776422 C55.451102,68.3632578 54.8181875,69 54.0372944,69 C53.2564014,69 52.6234869,68.3632578 52.6234869,67.5776422 L52.6234869,67.3255688 C52.6234869,66.5399531 53.2564014,65.903211 54.0372944,65.903211 C54.8181875,65.903211 55.451102,66.5399531 55.451102,67.3255688 L55.451102,67.3255688 Z M55.451102,21.4758646 L55.451102,62.7166553 C55.451102,63.502271 54.8181875,64.1390131 54.0372944,64.1390131 C53.2564014,64.1390131 52.6234869,63.502271 52.6234869,62.7166553 L52.6234869,21.4758646 C52.6234869,20.6902489 53.2564014,20.0535068 54.0372944,20.0535068 C54.8181875,20.0535068 55.451102,20.6902489 55.451102,21.4758646 L55.451102,21.4758646 Z M31.7069901,4.3511506 C31.7069901,4.3511506 19.1541072,4.35162472 19.1253598,4.35320511 C18.810552,4.36964125 18.5230778,4.48959343 18.295769,4.67987329 C18.2956119,4.68003133 18.2952977,4.68034741 18.2949835,4.68050545 C18.2943552,4.68113761 18.2935697,4.68176977 18.2929414,4.68224389 C18.292313,4.68287605 18.2916846,4.68335017 18.2910563,4.68382429 C18.2907421,4.68414037 18.2904279,4.68445645 18.2901137,4.68461449 C18.2893283,4.68540468 18.2883858,4.68619488 18.2874432,4.68698508 L18.2874432,4.68714312 C18.2574391,4.71258752 5.54558146,17.4989521 5.54558146,17.4989521 C5.30162112,17.7437557 5.14610229,18.0775357 5.13117877,18.4479809 C5.13023623,18.4708966 5.13007914,30.3844077 5.13007914,30.3844077 C5.13007914,31.1700233 5.76299364,31.8067655 6.54388667,31.8067655 C7.32477969,31.8067655 7.95769419,31.1700233 7.95769419,30.3844077 L7.95769419,19.9284973 L19.1998203,19.9284973 C19.9807134,19.9284973 20.6136279,19.2917551 20.6136279,18.5061395 L20.6136279,7.19586623 L31.7069901,7.19586623 C32.4878831,7.19586623 33.1207976,6.55912405 33.1207976,5.77350841 C33.1207976,4.98789278 32.4878831,4.3511506 31.7069901,4.3511506 L31.7069901,4.3511506 Z M17.7861699,17.0837817 L9.9572893,17.0837817 L17.7861699,9.20739626 L17.7861699,17.0837817 L17.7861699,17.0837817 Z" id="XMLID_257_" style="stroke-dasharray: 1023, 1025;stroke-dashoffset: 0;fill: #009F8E;" fill="none" stroke-width="1" stroke="#009F8E"></path>
</svg>