<svg xmlns="http://www.w3.org/2000/svg" id="icon_6" x="0px" y="0px" width="100%" height="100%" viewBox="0 0 90 90" enable-background="new 0 0 90 90" class="finished">
    <path d="M11.6485011,29.5900511 L8.2241987,29.5797872 C8.13738661,29.5797872 8.06682505,29.5090809 8.06682505,29.4221234 L8.06682505,12.3673447 C8.06682505,11.9623511 7.83803456,11.5921404 7.47581857,11.4110979 L3.59350756,9.46980851 L7.47581857,7.5286617 C7.83789201,7.34761915 8.06682505,6.97740851 8.06682505,6.57241489 L8.06682505,2.29581915 C8.06682505,2.20900426 8.13738661,2.13844043 8.2241987,2.13844043 L55.5145529,2.13844043 C55.601365,2.13844043 55.6719266,2.20914681 55.6719266,2.29581915 L55.6719266,26.3826043 C55.6719266,26.9730596 56.1504622,27.4517532 56.741041,27.4517532 C57.3316199,27.4517532 57.8101555,26.9730596 57.8101555,26.3826043 L57.8101555,2.2956766 C57.8101555,1.02980426 56.7802419,0 55.5145529,0 L8.2241987,0 C6.95836717,0 5.92859611,1.02994681 5.92859611,2.2956766 L5.92859611,5.9115383 L0.724717063,8.5135617 C0.362643629,8.69460426 0.133710583,9.06481489 0.133710583,9.46980851 C0.133710583,9.87480213 0.362358531,10.2450128 0.724717063,10.4260553 L5.92859611,13.0280787 L5.92859611,29.4221234 C5.92859611,30.6881383 6.95850972,31.7180851 8.22106263,31.7180851 L11.6420864,31.7283489 C12.2342333,31.7283489 12.7126263,31.2517936 12.7143369,30.6623362 C12.7161901,30.0718809 12.2387948,29.5917617 11.6485011,29.5900511 L11.6485011,29.5900511 Z" id="Shape" style="stroke-dasharray: 235, 237; stroke-dashoffset: 0;" fill="#009F8E" stroke-width="1" stroke="#009F8E"></path>
    <path d="M65.9566652,35.0616702 C65.9566652,32.0445319 63.502121,29.5900511 60.4852225,29.5900511 L47.1007646,29.5901936 C49.461797,25.2487362 50.7468726,19.8572319 50.7468726,14.1861809 C50.7468726,11.1690426 48.2923283,8.7145617 45.2754298,8.7145617 C42.2585313,8.7145617 39.803987,11.1690426 39.803987,14.1861809 C39.803987,22.6799277 32.8940864,29.5900511 24.4006134,29.5900511 L15.9215378,29.5900511 C15.330959,29.5900511 14.8524233,30.0687447 14.8524233,30.6592 L14.8524233,65.8788191 C14.8524233,66.4692745 15.330959,66.9479681 15.9215378,66.9479681 L24.4006134,66.9479681 C24.9911922,66.9479681 25.4697279,66.4692745 25.4697279,65.8788191 L25.4697279,31.6948489 C34.6461512,31.140317 41.942216,23.4998936 41.942216,14.1861809 C41.942216,12.3481 43.4374082,10.8528596 45.2754298,10.8528596 C47.1134514,10.8528596 48.6086436,12.3481 48.6086436,14.1861809 C48.6086436,20.1916617 47.0872225,25.8347723 44.3247732,30.0758723 C44.1106652,30.4046 44.0937019,30.824134 44.2805832,31.1689702 C44.4674644,31.5138064 44.8282549,31.728634 45.2205486,31.728634 L60.4850799,31.7283489 C62.3231015,31.7283489 63.8182937,33.2237319 63.8182937,35.0616702 C63.8182937,36.8996085 62.3231015,38.3949915 60.4850799,38.3949915 L55.0756458,38.3949915 C54.485067,38.3949915 54.0065313,38.8736851 54.0065313,39.4641404 C54.0065313,40.0545957 54.485067,40.5332894 55.0756458,40.5332894 L58.6819827,40.5332894 C60.5200043,40.5332894 62.0151965,42.0285298 62.0151965,43.8666106 C62.0151965,45.7046915 60.5200043,47.1999319 58.6819827,47.1999319 L55.0756458,47.1999319 C54.485067,47.1999319 54.0065313,47.6786255 54.0065313,48.2690809 C54.0065313,48.8595362 54.485067,49.3382298 55.0756458,49.3382298 L56.878743,49.3382298 C58.7167646,49.3382298 60.2119568,50.8334702 60.2119568,52.6715511 C60.2119568,54.5096319 58.7167646,56.0048723 56.878743,56.0048723 L55.0756458,56.0048723 C54.485067,56.0048723 54.0065313,56.483566 54.0065313,57.0740213 C54.0065313,57.6644766 54.485067,58.1431702 55.0756458,58.1431702 C56.9136674,58.1431702 58.4088596,59.6384106 58.4088596,61.4764915 C58.4088596,63.3145723 56.9136674,64.8098128 55.0756458,64.8098128 L28.6773564,64.8098128 C28.0867775,64.8098128 27.6082419,65.2885064 27.6082419,65.8789617 C27.6082419,66.469417 28.0867775,66.9481106 28.6773564,66.9481106 L55.0757883,66.9481106 C58.0926868,66.9481106 60.5472311,64.4936298 60.5472311,61.4764915 C60.5472311,60.0141809 59.970622,58.684017 59.0327948,57.7013979 C60.9820043,56.8634702 62.3503283,54.9243191 62.3503283,52.6715511 C62.3503283,51.2092404 61.7737192,49.8790766 60.835892,48.8964574 C62.7851015,48.0585298 64.1534255,46.1193787 64.1534255,43.8667532 C64.1534255,42.4044426 63.5768164,41.0742787 62.6389892,40.0916596 C64.5883413,39.2534468 65.9566652,37.3142957 65.9566652,35.0616702 L65.9566652,35.0616702 Z M23.331784,64.8096702 L16.9909374,64.8096702 L16.9909374,31.7283489 L23.331784,31.7283489 L23.331784,64.8096702 L23.331784,64.8096702 Z" id="Shape" style="stroke-dasharray: 486, 488; stroke-dashoffset: 0;" fill="#009F8E" stroke-width="1" stroke="#009F8E"></path>
    <path d="M51.8684449,61.6022234 L51.8684449,34.9359383 C51.8684449,34.345483 51.3899093,33.8667894 50.7993305,33.8667894 C50.2087516,33.8667894 49.730216,34.345483 49.730216,34.9359383 L49.730216,61.6022234 C49.730216,62.1926787 50.2087516,62.6713723 50.7993305,62.6713723 C51.3899093,62.6713723 51.8684449,62.1926787 51.8684449,61.6022234 L51.8684449,61.6022234 Z" id="Shape" style="stroke-dasharray: 61, 63; stroke-dashoffset: 0;" fill="#009F8E" stroke-width="1" stroke="#009F8E"></path>
</svg>