<svg xmlns="http://www.w3.org/2000/svg" id="icon_1" x="0px" y="0px" width="100%" height="100%" viewBox="0 0 90 90" enable-background="new 0 0 90 90" class="finished">
    <path d="M65.7052243,20.9273101 C69.7579947,20.9273101 73.0508707,17.5798768 73.0508707,13.463655 C73.0508707,9.34743326 69.7579947,6 65.7052243,6 C61.6524538,6 58.3595778,9.36344969 58.3595778,13.463655 C58.3595778,17.5638604 61.6524538,20.9273101 65.7052243,20.9273101 L65.7052243,20.9273101 Z M65.7052243,9.85995893 C67.6524538,9.85995893 69.2513984,11.4776181 69.2513984,13.4796715 C69.2513984,15.4817248 67.668285,17.099384 65.7052243,17.099384 C63.7421636,17.099384 62.1590501,15.4657084 62.1590501,13.463655 C62.1590501,11.4616016 63.7421636,9.85995893 65.7052243,9.85995893 L65.7052243,9.85995893 Z" id="Shape" fill="#009F8E" stroke-width="1" stroke="#009F8E" style="stroke-dasharray: 70, 72; stroke-dashoffset: 0;"></path>
    <path d="M22.3912401,69.0566735 C18.3384697,69.0566735 15.0455937,72.4041068 15.0455937,76.5203285 C15.0455937,80.6365503 18.3384697,83.9839836 22.3912401,83.9839836 C26.4440106,83.9839836 29.7368865,80.6365503 29.7368865,76.5203285 C29.7368865,72.4041068 26.4281794,69.0566735 22.3912401,69.0566735 L22.3912401,69.0566735 Z M22.3912401,80.1400411 C20.4440106,80.1400411 18.845066,78.5223819 18.845066,76.5203285 C18.845066,74.5342916 20.4281794,72.900616 22.3912401,72.900616 C24.3543008,72.900616 25.9374142,74.5182752 25.9374142,76.5203285 C25.9215831,78.5063655 24.3384697,80.1400411 22.3912401,80.1400411 L22.3912401,80.1400411 Z" id="Shape" fill="#009F8E" stroke-width="1" stroke="#009F8E" style="stroke-dasharray: 70, 72; stroke-dashoffset: 0;"></path>
    <path d="M40.5495515,39.073922 C40.9136675,39.4422998 41.4044327,39.6344969 41.8951979,39.6344969 C42.3859631,39.6344969 42.8608971,39.4422998 43.2408443,39.073922 C43.9849077,38.3211499 43.9849077,37.1039014 43.2408443,36.3511294 L39.2830607,32.3470226 L43.2408443,28.3429158 C43.9849077,27.5901437 43.9849077,26.3728953 43.2408443,25.6201232 C42.496781,24.8673511 41.2936148,24.8673511 40.5495515,25.6201232 L36.5917678,29.62423 L32.6339842,25.6201232 C31.8899208,24.8673511 30.6867546,24.8673511 29.9426913,25.6201232 C29.198628,26.3728953 29.198628,27.5901437 29.9426913,28.3429158 L33.9004749,32.3470226 L29.9426913,36.3511294 C29.198628,37.1039014 29.198628,38.3211499 29.9426913,39.073922 C30.3068074,39.4422998 30.7975726,39.6344969 31.2883377,39.6344969 C31.7791029,39.6344969 32.2540369,39.4422998 32.6339842,39.073922 L36.5917678,35.0698152 L40.5495515,39.073922 L40.5495515,39.073922 Z" id="Shape" fill="#009F8E" stroke-width="1" stroke="#009F8E" style="stroke-dasharray: 70, 72; stroke-dashoffset: 0;"></path>
    <path d="M72.3543008,56.4517454 C71.6102375,55.6989733 70.4070712,55.6989733 69.6630079,56.4517454 L65.7052243,60.4558522 L61.7474406,56.4517454 C61.0033773,55.6989733 59.8002111,55.6989733 59.0561478,56.4517454 C58.3120844,57.2045175 58.3120844,58.4217659 59.0561478,59.174538 L63.0139314,63.1786448 L59.0561478,67.1827515 C58.3120844,67.9355236 58.3120844,69.1527721 59.0561478,69.9055441 C59.4202639,70.273922 59.911029,70.4661191 60.4017942,70.4661191 C60.8925594,70.4661191 61.3674934,70.273922 61.7474406,69.9055441 L65.7052243,65.9014374 L69.6630079,69.9055441 C70.027124,70.273922 70.5178892,70.4661191 71.0086544,70.4661191 C71.4994195,70.4661191 71.9743536,70.273922 72.3543008,69.9055441 C73.0983641,69.1527721 73.0983641,67.9355236 72.3543008,67.1827515 L68.3965172,63.1786448 L72.3543008,59.174538 C73.0983641,58.4057495 73.0983641,57.2045175 72.3543008,56.4517454 L72.3543008,56.4517454 Z" id="Shape" fill="#009F8E" stroke-width="1" stroke="#009F8E" style="stroke-dasharray: 70, 72; stroke-dashoffset: 0;"></path>
    <path d="M49.8424274,66.3659138 C49.0983641,65.6131417 47.8951979,65.6131417 47.1511346,66.3659138 L43.1933509,70.3700205 L39.2355673,66.3659138 C38.491504,65.6131417 37.2883377,65.6131417 36.5442744,66.3659138 C35.8002111,67.1186858 35.8002111,68.3359343 36.5442744,69.0887064 L40.502058,73.0928131 L36.5442744,77.0969199 C35.8002111,77.849692 35.8002111,79.0669405 36.5442744,79.8197125 C36.9083905,80.1880903 37.3991557,80.3802875 37.8899208,80.3802875 C38.380686,80.3802875 38.8556201,80.1880903 39.2355673,79.8197125 L43.1933509,75.8156057 L47.1511346,79.8197125 C47.5152507,80.1880903 48.0060158,80.3802875 48.496781,80.3802875 C48.9875462,80.3802875 49.4624802,80.1880903 49.8424274,79.8197125 C50.5864908,79.0669405 50.5864908,77.849692 49.8424274,77.0969199 L45.8846438,73.0928131 L49.8424274,69.0887064 C50.5706596,68.3359343 50.5706596,67.1186858 49.8424274,66.3659138 L49.8424274,66.3659138 Z" id="Shape" fill="#009F8E" stroke-width="1" stroke="#009F8E" style="stroke-dasharray: 70, 72; stroke-dashoffset: 0;"></path>
    <path d="M37.5416359,51.9190965 C38.5864908,51.9190965 39.441372,51.0542094 39.441372,49.9971253 C39.441372,48.9400411 38.5864908,48.075154 37.5416359,48.075154 C36.496781,48.075154 35.6418997,48.9400411 35.6418997,49.9971253 C35.6418997,51.0542094 36.4809499,51.9190965 37.5416359,51.9190965 L37.5416359,51.9190965 Z" id="Shape" fill="#009F8E" stroke-width="1" stroke="#009F8E" style="stroke-dasharray: 13, 15; stroke-dashoffset: 0;"></path>
    <path d="M23.4677573,57.5889117 C23.7843799,57.7971253 24.148496,57.9092402 24.5126121,57.9092402 C25.1300264,57.9092402 25.7316095,57.6049281 26.0957256,57.0443532 C26.6656464,56.1634497 26.4281794,54.9622177 25.557467,54.3856263 C24.6867546,53.8090349 23.4994195,54.0492813 22.9294987,54.9301848 C22.3437467,55.8110883 22.5812137,57.0123203 23.4677573,57.5889117 L23.4677573,57.5889117 Z" id="Shape" fill="#009F8E" stroke-width="1" stroke="#009F8E" style="stroke-dasharray: 12, 14; stroke-dashoffset: 0;"></path>
    <path d="M29.4044327,49.3724846 C28.4387335,49.8049281 28.0112929,50.9420945 28.4387335,51.9030801 C28.7553562,52.6238193 29.4519261,53.0402464 30.1801583,53.0402464 C30.4334565,53.0402464 30.7025858,52.9921971 30.9558839,52.8800821 C31.9215831,52.4476386 32.3490237,51.3104723 31.9215831,50.3494867 C31.478153,49.3724846 30.3543008,48.9400411 29.4044327,49.3724846 L29.4044327,49.3724846 Z" id="Shape" fill="#009F8E" stroke-width="1" stroke="#009F8E" style="stroke-dasharray: 13, 15; stroke-dashoffset: 0;"></path>
    <path id="Oval" fill="#009F8E" stroke-width="1" stroke="#009F8E" d="M43.161688649999995,49.9971253A1.89973615,1.92197125 0,1,1 46.96116095,49.9971253A1.89973615,1.92197125 0,1,1 43.161688649999995,49.9971253" style="stroke-dasharray: 13, 15; stroke-dashoffset: 0;"></path>
    <path d="M22.3912401,65.100616 C22.8978364,65.100616 23.3886016,64.8924025 23.7368865,64.5400411 C24.0851715,64.1876797 24.2909763,63.6911704 24.2909763,63.1786448 C24.2909763,62.6661191 24.0851715,62.1696099 23.7368865,61.8172485 C23.3886016,61.4648871 22.8978364,61.2566735 22.3912401,61.2566735 C21.8846438,61.2566735 21.3938786,61.4648871 21.0455937,61.8172485 C20.6973087,62.1696099 20.491504,62.6661191 20.491504,63.1786448 C20.491504,63.6911704 20.6973087,64.1876797 21.0455937,64.5400411 C21.3938786,64.8924025 21.8846438,65.100616 22.3912401,65.100616 L22.3912401,65.100616 Z" id="Shape" fill="#009F8E" stroke-width="1" stroke="#009F8E" style="stroke-dasharray: 13, 15; stroke-dashoffset: 0;"></path>
    <path d="M74.380686,33.2599589 L67.0350396,25.8283368 C66.2909763,25.0755647 65.08781,25.0755647 64.3437467,25.8283368 L56.9981003,33.2599589 C56.2540369,34.012731 56.2540369,35.2299795 56.9981003,35.9827515 C57.7421636,36.7355236 58.9453298,36.7355236 59.6893931,35.9827515 L63.789657,31.8344969 L63.789657,36.7995893 C63.789657,43.013963 58.7553562,48.0591376 52.5653826,48.0591376 C51.5205277,48.0591376 50.6656464,48.9240246 50.6656464,49.9811088 C50.6656464,51.038193 51.5205277,51.9030801 52.5653826,51.9030801 C60.845066,51.9030801 67.5891293,45.1281314 67.5891293,36.7995893 L67.5891293,31.8184805 L71.6893931,35.9667351 C72.0535092,36.3351129 72.5442744,36.5273101 73.0350396,36.5273101 C73.5258047,36.5273101 74.0007388,36.3351129 74.380686,35.9667351 C75.1247493,35.2299795 75.1247493,34.012731 74.380686,33.2599589 L74.380686,33.2599589 Z" id="Shape" fill="#009F8E" stroke-width="1" stroke="#009F8E" style="stroke-dasharray: 105, 107; stroke-dashoffset: 0;"></path>
</svg>