<svg xmlns="http://www.w3.org/2000/svg" id="icon_3" x="0px" y="0px" width="100%" height="100%" viewBox="0 0 90 90" enable-background="new 0 0 90 90" class="finished">
    <path d="M67.5274333,0 L5.47256667,0 C2.45523333,0 0,2.47824561 0,5.52508772 L0,45.4385965 L0,50.9661404 C0,54.0117544 2.45523333,56.4912281 5.47256667,56.4912281 L27.1973667,56.4912281 C27.3701333,58.642807 26.4454667,60.7673684 24.73605,61.9831579 L22.5448333,63.542807 C22.4049167,63.6410526 22.2881167,63.7601754 22.192,63.892807 C20.6650833,64.0536842 19.4666667,65.3468421 19.4666667,66.9298246 C19.4666667,68.6221053 20.83055,70 22.5083333,70 L50.4916667,70 C52.16945,70 53.5333333,68.6221053 53.5333333,66.9298246 C53.5333333,65.3468421 52.3361333,64.0549123 50.8092167,63.8915789 C50.7143167,63.7614035 50.5987333,63.6435088 50.4624667,63.5464912 L48.2676,61.985614 C46.5569667,60.7685965 45.6310833,58.6440351 45.80385,56.4912281 L67.5274333,56.4912281 C70.5447667,56.4912281 73,54.0129825 73,50.9661404 L73,45.4385965 L73,5.52508772 C73,2.47824561 70.5447667,0 67.5274333,0 L67.5274333,0 Z M2.43333333,5.52508772 C2.43333333,3.83280702 3.79721667,2.45614035 5.47256667,2.45614035 L67.5274333,2.45614035 C69.2027833,2.45614035 70.5666667,3.83280702 70.5666667,5.52508772 L70.5666667,42.9824561 L2.43333333,42.9824561 L2.43333333,5.52508772 L2.43333333,5.52508772 Z M50.4916667,67.5438596 L22.5083333,67.5438596 C22.1786167,67.5438596 21.9,67.2626316 21.9,66.9298246 C21.9,66.5970175 22.1786167,66.3157895 22.5083333,66.3157895 L23.3916333,66.3157895 L49.6083667,66.3157895 L50.4916667,66.3157895 C50.8213833,66.3157895 51.1,66.5970175 51.1,66.9298246 C51.1,67.2626316 50.8213833,67.5438596 50.4916667,67.5438596 L50.4916667,67.5438596 Z M43.3644333,56.4936842 C43.2026167,59.3538596 44.43875,62.1636842 46.6847167,63.8596491 L26.3177167,63.8596491 C28.5636833,62.1636842 29.7998167,59.3526316 29.638,56.4912281 L43.3644333,56.4936842 L43.3644333,56.4936842 Z M70.5666667,50.9661404 C70.5666667,52.6584211 69.2027833,54.0350877 67.5274333,54.0350877 L46.3039,54.0350877 L26.6973167,54.0350877 L5.47256667,54.0350877 C3.79721667,54.0350877 2.43333333,52.6584211 2.43333333,50.9661404 L2.43333333,45.4385965 L70.5666667,45.4385965 L70.5666667,50.9661404 L70.5666667,50.9661404 Z" id="Shape" style="stroke-dasharray: 773, 775;stroke-dashoffset: 0;fill: #009F8E;" fill="none" stroke-width="1" stroke="#009F8E"></path>
    <path d="M45.1904762,23.5644718 L45.1904762,23.5644718 L45.1904762,23.5644718 C45.1904762,22.9276457 44.672957,22.4112192 44.0346679,22.4113345 L42.8022371,22.4114498 C42.7325488,22.0109252 42.6292299,21.6219331 42.491818,21.2489713 L43.5574823,20.6349796 C44.1101346,20.3163359 44.2995526,19.6110066 43.9802347,19.0595213 C43.6609168,18.5080359 42.9543263,18.3187871 42.4015584,18.6375462 L41.3327738,19.2536137 C41.0747076,18.9458106 40.7897137,18.6614185 40.4812593,18.4037819 L41.0986304,17.3373692 C41.4179483,16.7858838 41.2286458,16.0804392 40.6759936,15.7619109 C40.1233413,15.4431519 39.4165196,15.63217 39.0972017,16.1836553 L38.4817953,17.2469542 C38.1080442,17.1098325 37.7182291,17.0066164 37.316857,16.9369599 L37.316857,15.707708 C37.316857,15.0707666 36.7994533,14.5544554 36.1611642,14.5544554 C36.158275,14.5544554 36.1552702,14.5549167 36.152381,14.5549167 C36.1494917,14.5549167 36.1464869,14.5544554 36.1435977,14.5544554 C35.5054241,14.5544554 34.9879049,15.0707666 34.9879049,15.707708 L34.9879049,16.9368446 C34.5865328,17.006501 34.1967177,17.1096018 33.8229666,17.2468389 L33.2075602,16.18354 C32.8882423,15.6320546 32.1814206,15.4430365 31.6287683,15.7617956 C31.0761161,16.0803239 30.8868136,16.7857685 31.2061315,17.3372539 L31.8235026,18.4036665 C31.5150482,18.6613032 31.2300543,18.9456952 30.9719882,19.2534983 L29.9032035,18.6374308 C29.3504356,18.3186718 28.6438451,18.5079206 28.3245272,19.0594059 C28.0052093,19.6108913 28.1946273,20.3162206 28.7472796,20.6348643 L29.8129439,21.2488559 C29.675532,21.6218178 29.5722131,22.0108099 29.5025248,22.4113345 L28.270094,22.4112192 C27.6318049,22.4111039 27.1142857,22.9275304 27.1142857,23.5643564 L27.1142857,23.5643564 L27.1142857,23.5643564 L27.1142857,23.5643564 L27.1142857,23.5643564 C27.1142857,24.2012978 27.6318049,24.717609 28.270094,24.717609 L29.5025248,24.7174937 C29.5720975,25.117903 29.675532,25.5068951 29.8129439,25.8798569 L28.7472796,26.4939639 C28.1946273,26.8126076 28.0052093,27.5178216 28.3245272,28.0694223 C28.6438451,28.6207923 29.3504356,28.8100411 29.9032035,28.491282 L30.9719882,27.8752145 C31.2300543,28.183133 31.5150482,28.467525 31.8235026,28.7250463 L31.2061315,29.7915743 C30.8868136,30.3430597 31.0761161,31.048389 31.6287683,31.3669173 C32.1814206,31.6856763 32.8882423,31.4966582 33.2075602,30.9452882 L33.8229666,29.881874 C34.1967177,30.0189957 34.5865328,30.1223271 34.9879049,30.1918683 L34.9879049,31.4210049 C34.9879049,32.0579463 35.5054241,32.5742574 36.1435977,32.5742574 C36.1464869,32.5742574 36.1494917,32.5737961 36.152381,32.5737961 C36.1552702,32.5737961 36.158275,32.5742574 36.1611642,32.5742574 C36.7994533,32.5742574 37.316857,32.0579463 37.316857,31.4210049 L37.316857,30.1918683 C37.7182291,30.1223271 38.1080442,30.019111 38.4817953,29.881874 L39.0972017,30.9452882 C39.4165196,31.4966582 40.1233413,31.6856763 40.6759936,31.3669173 C41.2286458,31.048389 41.4179483,30.3430597 41.0986304,29.7915743 L40.4812593,28.7250463 C40.7897137,28.467525 41.0747076,28.183133 41.3327738,27.8752145 L42.4015584,28.491282 C42.9543263,28.8100411 43.6610324,28.6207923 43.9802347,28.0694223 C44.2995526,27.5178216 44.1101346,26.8126076 43.5574823,26.4939639 L42.491818,25.8798569 C42.6292299,25.5068951 42.7325488,25.117903 42.8022371,24.7174937 L44.0346679,24.717609 C44.672957,24.7177243 45.1904762,24.2014132 45.1904762,23.5644718 L45.1904762,23.5644718 L45.1904762,23.5644718 L45.1904762,23.5644718 Z M36.1613212,28.0693069 C36.1583803,28.0693069 36.1553218,28.069072 36.152381,28.069072 C36.1494401,28.069072 36.1463816,28.0693069 36.1434407,28.0693069 C33.6565294,28.0693069 31.6333333,26.0485175 31.6333333,23.5643564 C31.6333333,21.0803128 33.6565294,19.0594059 36.1434407,19.0594059 C36.1463816,19.0594059 36.1494401,19.0596409 36.152381,19.0596409 C36.1553218,19.0596409 36.1583803,19.0594059 36.1613212,19.0594059 C38.6482325,19.0594059 40.6714286,21.0803128 40.6714286,23.5643564 C40.6714286,26.0484 38.6482325,28.0693069 36.1613212,28.0693069 L36.1613212,28.0693069 Z" id="Shape" style="stroke-dasharray: 116, 118;stroke-dashoffset: 0;fill: #009F8E;" fill="none" stroke-width="1" stroke="#009F8E"></path>
</svg>